<svg width="32" height="33" viewBox="0 0 32 33" fill="none" xmlns="http://www.w3.org/2000/svg">
<path d="M28 13.8446H16.8667C15.7733 10.7379 12.8133 8.51123 9.33333 8.51123C4.91999 8.51123 1.33333 12.0979 1.33333 16.5112C1.33333 20.9246 4.91999 24.5112 9.33333 24.5112C12.8133 24.5112 15.7733 22.2846 16.8667 19.1779H17.3333L20 21.8446L22.6667 19.1779L25.3333 21.8446L30.6667 16.4579L28 13.8446ZM9.33333 20.5112C7.13333 20.5112 5.33333 18.7112 5.33333 16.5112C5.33333 14.3112 7.13333 12.5112 9.33333 12.5112C11.5333 12.5112 13.3333 14.3112 13.3333 16.5112C13.3333 18.7112 11.5333 20.5112 9.33333 20.5112Z" fill="#CA7218"/>
</svg>
